<?xml version="1.0" encoding="UTF-8" standalone="no"?>
<!-- Created with Inkscape (http://www.inkscape.org/) -->

<svg
   xmlns:dc="http://purl.org/dc/elements/1.1/"
   xmlns:cc="http://creativecommons.org/ns#"
   xmlns:rdf="http://www.w3.org/1999/02/22-rdf-syntax-ns#"
   xmlns:svg="http://www.w3.org/2000/svg"
   xmlns="http://www.w3.org/2000/svg"
   xmlns:sodipodi="http://sodipodi.sourceforge.net/DTD/sodipodi-0.dtd"
   xmlns:inkscape="http://www.inkscape.org/namespaces/inkscape"
   width="210mm"
   height="297mm"
   viewBox="0 0 210 297"
   version="1.1"
   id="svg8"
   sodipodi:docname="Mug_Line_Art_Logo.svg"
   inkscape:version="0.92.5 (2060ec1f9f, 2020-04-08)">
  <defs
     id="defs2">
    <inkscape:path-effect
       effect="skeletal"
       id="path-effect898"
       is_visible="true"
       pattern="m 2.1166667,3.9416666 c 0,-2.76 2.2400001,-4.9999999 5.0000001,-4.9999999 2.7599995,0 5.0000012,2.2399999 5.0000012,4.9999999 0,2.76 -2.2400017,5 -5.0000012,5 -2.76,0 -5.0000001,-2.24 -5.0000001,-5 z"
       copytype="single_stretched"
       prop_scale="-0.50549724"
       scale_y_rel="false"
       spacing="0"
       normal_offset="0"
       tang_offset="0"
       prop_units="false"
       vertical_pattern="false"
       fuse_tolerance="0" />
    <inkscape:path-effect
       effect="skeletal"
       id="path-effect852"
       is_visible="true"
       pattern="M 0,5 C 0,2.24 2.24,0 5,0 7.76,0 10,2.24 10,5 10,7.76 7.76,10 5,10 2.24,10 0,7.76 0,5 Z"
       copytype="single_stretched"
       prop_scale="0.26458333"
       scale_y_rel="false"
       spacing="0"
       normal_offset="0"
       tang_offset="0"
       prop_units="false"
       vertical_pattern="false"
       fuse_tolerance="0" />
    <inkscape:path-effect
       effect="skeletal"
       id="path-effect848"
       is_visible="true"
       pattern="M 0,5 C 0,2.24 2.24,0 5,0 7.76,0 10,2.24 10,5 10,7.76 7.76,10 5,10 2.24,10 0,7.76 0,5 Z"
       copytype="single_stretched"
       prop_scale="0.24572143"
       scale_y_rel="false"
       spacing="0"
       normal_offset="0"
       tang_offset="0"
       prop_units="false"
       vertical_pattern="false"
       fuse_tolerance="0" />
    <inkscape:path-effect
       effect="skeletal"
       id="path-effect844"
       is_visible="true"
       pattern="M 0,5 C 0,2.24 2.24,0 5,0 7.76,0 10,2.24 10,5 10,7.76 7.76,10 5,10 2.24,10 0,7.76 0,5 Z"
       copytype="single_stretched"
       prop_scale="0.44023524"
       scale_y_rel="false"
       spacing="0"
       normal_offset="0"
       tang_offset="0"
       prop_units="false"
       vertical_pattern="false"
       fuse_tolerance="0" />
    <inkscape:path-effect
       effect="skeletal"
       id="path-effect840"
       is_visible="true"
       pattern="m -2.4017827,21.825722 c 0,-2.76 2.24000003,-5 5,-5 2.76,0 5,2.24 5,5 0,2.76 -2.24,5 -5,5 -2.75999997,0 -5,-2.24 -5,-5 z"
       copytype="single_stretched"
       prop_scale="0.26458333"
       scale_y_rel="false"
       spacing="0"
       normal_offset="0"
       tang_offset="0"
       prop_units="false"
       vertical_pattern="false"
       fuse_tolerance="0" />
    <inkscape:path-effect
       effect="skeletal"
       id="path-effect836"
       is_visible="true"
       pattern="m -2.4017827,21.825722 c 0,-2.76 2.24000003,-5 5,-5 2.76,0 5,2.24 5,5 0,2.76 -2.24,5 -5,5 -2.75999997,0 -5,-2.24 -5,-5 z"
       copytype="single_stretched"
       prop_scale="0.26458333"
       scale_y_rel="false"
       spacing="0"
       normal_offset="0"
       tang_offset="0"
       prop_units="false"
       vertical_pattern="false"
       fuse_tolerance="0" />
    <inkscape:path-effect
       effect="skeletal"
       id="path-effect832"
       is_visible="true"
       pattern="M 0,5 C 0,2.24 2.24,0 5,0 7.76,0 10,2.24 10,5 10,7.76 7.76,10 5,10 2.24,10 0,7.76 0,5 Z"
       copytype="single_stretched"
       prop_scale="0.26458333"
       scale_y_rel="false"
       spacing="0"
       normal_offset="0"
       tang_offset="0"
       prop_units="false"
       vertical_pattern="false"
       fuse_tolerance="0" />
    <inkscape:path-effect
       effect="bspline"
       id="path-effect828"
       is_visible="true"
       weight="33.333333"
       steps="2"
       helper_size="0"
       apply_no_weight="true"
       apply_with_weight="true"
       only_selected="false" />
    <inkscape:path-effect
       effect="spiro"
       id="path-effect817"
       is_visible="true" />
    <inkscape:path-effect
       effect="skeletal"
       id="path-effect852-3"
       is_visible="true"
       pattern="m -62.86712,56.069785 c 0,-2.76 2.24,-5 5,-5 2.76,0 5,2.24 5,5 0,2.76 -2.24,5 -5,5 -2.76,0 -5,-2.24 -5,-5 z"
       copytype="single_stretched"
       prop_scale="0.26458332"
       scale_y_rel="false"
       spacing="0"
       normal_offset="0"
       tang_offset="0"
       prop_units="false"
       vertical_pattern="false"
       fuse_tolerance="0" />
    <inkscape:path-effect
       effect="skeletal"
       id="path-effect852-7"
       is_visible="true"
       pattern="m -43.81712,63.478119 c 0,-2.76 2.24,-5 5,-5 2.76,0 5,2.24 5,5 0,2.76 -2.24,5 -5,5 -2.76,0 -5,-2.24 -5,-5 z"
       copytype="single_stretched"
       prop_scale="0.26458332"
       scale_y_rel="false"
       spacing="0"
       normal_offset="0"
       tang_offset="0"
       prop_units="false"
       vertical_pattern="false"
       fuse_tolerance="0" />
    <inkscape:path-effect
       effect="skeletal"
       id="path-effect852-35"
       is_visible="true"
       pattern="m -23.444203,60.038536 c 0,-2.76 2.24,-5 5,-5 2.76,0 5,2.24 5,5 0,2.76 -2.24,5 -5,5 -2.76,0 -5,-2.24 -5,-5 z"
       copytype="single_stretched"
       prop_scale="0.26458332"
       scale_y_rel="false"
       spacing="0"
       normal_offset="0"
       tang_offset="0"
       prop_units="false"
       vertical_pattern="false"
       fuse_tolerance="0" />
    <inkscape:path-effect
       effect="skeletal"
       id="path-effect852-9"
       is_visible="true"
       pattern="m 24.974547,51.836452 c 0,-2.76 2.239999,-5 4.999999,-5 2.76,0 5,2.24 5,5 0,2.76 -2.24,5 -5,5 -2.76,0 -4.999999,-2.24 -4.999999,-5 z"
       copytype="single_stretched"
       prop_scale="0.26458332"
       scale_y_rel="false"
       spacing="0"
       normal_offset="0"
       tang_offset="0"
       prop_units="false"
       vertical_pattern="false"
       fuse_tolerance="0" />
  </defs>
  <sodipodi:namedview
     id="base"
     pagecolor="#ffffff"
     bordercolor="#666666"
     borderopacity="1.0"
     inkscape:pageopacity="0.0"
     inkscape:pageshadow="2"
     inkscape:zoom="1"
     inkscape:cx="-273.21278"
     inkscape:cy="672.77827"
     inkscape:document-units="px"
     inkscape:current-layer="layer1"
     showgrid="false"
     showborder="false"
     inkscape:window-width="1920"
     inkscape:window-height="1019"
     inkscape:window-x="0"
     inkscape:window-y="0"
     inkscape:window-maximized="1"
     inkscape:snap-nodes="false" />
  <metadata
     id="metadata5">
    <rdf:RDF>
      <cc:Work
         rdf:about="">
        <dc:format>image/svg+xml</dc:format>
        <dc:type
           rdf:resource="http://purl.org/dc/dcmitype/StillImage" />
        <dc:title></dc:title>
      </cc:Work>
    </rdf:RDF>
  </metadata>
  <g
     inkscape:label="Layer 1"
     inkscape:groupmode="layer"
     id="layer1">
    <g
       id="g40">
      <path
         sodipodi:nodetypes="cc"
         inkscape:original-d="m -111.125,104.9125 c 13.118713,106.55811 127.801348,82.12621 127,0.26458"
         inkscape:path-effect="#path-effect832"
         inkscape:connector-curvature="0"
         id="path830"
         d="m -111.125,104.9125 c 0.38988,-0.048 0.82831,14.23524 10.15125,33.54357 0,0 10e-6,0 10e-6,0 3.512395,7.27328 8.692737,15.38117 16.154692,22.06527 5.538502,4.96644 12.412371,9.17815 20.248512,11.64425 5.451758,1.71915 11.32071,2.58543 17.32927,2.49152 1.579794,-0.0247 3.150027,-0.11554 4.704794,-0.26991 16.650055,-1.64309 30.720643,-10.38708 39.8904735,-20.49982 10.5444029,-11.60791 14.8140495,-25.11592 16.6092605,-34.02408 1.851861,-9.18928 1.664319,-14.6838 1.911738,-14.68623 0.0662,-6.4e-4 0.925941,5.44027 -0.575578,14.92625 -1.446838,9.14053 -5.467141,23.08516 -16.22514808,35.321 -9.36511792,10.63335 -23.90277392,19.82657 -41.34775692,21.59287 -1.627828,0.16387 -3.27197,0.26014 -4.926413,0.28601 -6.293094,0.0984 -12.441361,-0.82506 -18.159676,-2.65256 -8.222292,-2.63266 -15.371083,-7.08715 -21.089587,-12.33231 -7.692957,-7.06347 -12.890619,-15.49189 -16.314291,-23.02379 0,0 0,0 0,-1e-5 -9.24337,-20.3324 -7.755,-34.4567 -8.36155,-34.38203 z"
         style="fill:#000000;stroke:none;stroke-width:0.26458332px;stroke-linecap:butt;stroke-linejoin:miter;stroke-opacity:1" />
      <path
         sodipodi:nodetypes="cc"
         inkscape:original-d="M 18.432362,101.55777 C 52.69469,111.68802 45.54319,127.41181 4.8133885,147.67086"
         inkscape:path-effect="#path-effect836"
         inkscape:connector-curvature="0"
         id="path834"
         d="m 18.432362,101.55777 c 0.04742,-0.16037 4.596023,0.24742 11.332359,3.20319 0,0 2e-6,1e-5 2e-6,1e-5 2.291768,1.00077 5.069498,2.42579 7.507782,4.5683 1.571853,1.36738 3.084388,3.21752 3.848756,5.56408 0.623182,2.03522 0.555703,4.26209 -0.139739,6.33803 -0.741216,2.19919 -1.982335,4.15931 -3.457705,5.93413 -0.154447,0.1858 -0.310548,0.36847 -0.467806,0.54806 -2.263835,2.60883 -4.853549,4.78357 -7.339676,6.64244 -6.424982,4.80966 -13.065547,8.3029 -17.421313,10.38327 -4.5402528,2.16849 -7.3574197,3.18131 -7.4816351,2.93158 -0.1456263,-0.29277 2.4230642,-1.81057 6.7215501,-4.35662 4.02881,-2.38632 10.582403,-6.25816 16.633484,-10.98331 2.369779,-1.85282 4.812993,-3.93912 6.886303,-6.3474 0.142955,-0.1677 0.284623,-0.33677 0.424479,-0.50721 1.336438,-1.62863 2.432349,-3.29146 3.029123,-5.07567 0.543822,-1.61354 0.649464,-3.30864 0.208862,-4.77746 -0.481787,-1.75768 -1.712162,-3.3106 -3.016802,-4.57704 -2.065758,-1.98127 -4.62354,-3.45555 -6.755578,-4.57363 0,0 -2e-6,0 -2e-6,0 -6.261915,-3.27001 -10.617944,-4.55793 -10.512444,-4.91475 z"
         style="fill:#000000;stroke:none;stroke-width:0.26458332px;stroke-linecap:butt;stroke-linejoin:miter;stroke-opacity:1" />
      <path
         sodipodi:nodetypes="cc"
         inkscape:original-d="m 16.786132,105.39057 c -1.941039,-1.21429 31.330541,8.2993 -6.030938,34.34396"
         inkscape:path-effect="#path-effect840"
         inkscape:connector-curvature="0"
         id="path838"
         d="m 16.786132,105.39057 c 0.0033,-0.0449 -0.01978,-0.0791 -0.05321,-0.1584 -0.0062,-0.0147 -0.01697,-0.036 -0.01152,-0.056 0.0048,-0.0176 0.01998,-0.0268 0.03509,-0.0354 0.02603,-0.0148 0.05291,-0.0238 0.08472,-0.0323 0.204586,-0.055 0.428641,-0.0495 0.766641,-0.0125 l 10e-7,0 0,0 c 0.727866,0.0791 1.720707,0.32185 2.995729,0.83481 l 0,0 c 2.035765,0.8071 5.261198,2.51527 7.448312,5.78944 l 0,0 c 0.971843,1.47555 1.666722,3.30034 1.798635,5.31757 0.119816,2.15864 -0.366326,4.3269 -1.288697,6.35571 -0.05913,0.13006 -0.119729,0.25883 -0.18169,0.38627 -1.535833,3.18179 -3.776072,5.7673 -5.851846,7.79289 -6.146094,6.02408 -11.609169,8.39706 -11.773113,8.16187 -0.307627,-0.44129 4.517749,-3.85011 10.039621,-9.84451 1.866538,-2.03549 3.890522,-4.47583 5.197932,-7.24992 0.0516,-0.11044 0.102221,-0.22154 0.151767,-0.33324 0.773109,-1.74296 1.217877,-3.48351 1.145443,-5.14004 -0.04671,-1.52671 -0.533601,-2.98764 -1.235192,-4.20615 l 0,0 c -1.566385,-2.76528 -4.367366,-4.65801 -6.100584,-5.72744 l 0,0 c -1.198655,-0.72976 -1.853873,-1.06044 -2.557823,-1.43037 l 0,0 0,0 c -0.289496,-0.14561 -0.482565,-0.25949 -0.619578,-0.33123 -0.0247,-0.0129 -0.04409,-0.0231 -0.06449,-0.0301 -0.01153,-0.004 -0.02378,-0.006 -0.0255,-0.001 -0.0021,0.006 0.01253,0.01 0.02136,0.0104 0.04766,0.003 0.07551,-0.0264 0.07799,-0.0603 z"
         style="fill:#000000;stroke:none;stroke-width:0.26458332px;stroke-linecap:butt;stroke-linejoin:miter;stroke-opacity:1" />
      <path
         sodipodi:nodetypes="cc"
         inkscape:original-d="m -111.125,104.9125 c 7.3915,17.08138 128.590781,14.07933 126.092093,-3.42016"
         inkscape:path-effect="#path-effect844"
         inkscape:connector-curvature="0"
         id="path842"
         d="m -111.125,104.9125 c 0.24382,-0.10551 0.96041,1.09069 3.0975,2.35075 1.31763,0.75752 2.78582,1.3675 4.94848,2.05748 4.29697,1.36127 8.715499,2.17883 15.381981,3.00839 6.196752,0.76179 12.765707,1.24284 20.474427,1.52645 6.366072,0.23322 13.027115,0.2999 20.067394,0.17405 0.913793,-0.0163 1.823183,-0.0357 2.727987,-0.058 7.977359,-0.19672 15.344951,-0.60744 22.336932,-1.22897 7.347501,-0.65509 13.3827708,-1.43017 19.0954184,-2.52086 2.79572429,-0.53412 5.2004406,-1.08456 7.4594265,-1.73179 2.2453373,-0.64701 3.9967228,-1.26334 5.6009841,-2.02947 1.615233,-0.79062 2.628676,-1.4288 3.431539,-2.27853 1.293757,-1.36331 1.231575,-2.65565 1.470023,-2.6897 -0.059,0.008 1.155139,1.17174 -0.376168,3.53011 -0.74777,1.16244 -1.885529,2.22604 -3.517179,3.24535 -1.6268221,1.03503 -3.4881627,1.92331 -5.754442,2.78209 -2.2924217,0.87198 -4.78000701,1.63468 -7.606888,2.35111 -5.740448,1.45567 -12.008028,2.53701 -19.386609,3.3935 -7.062585,0.82152 -14.58169,1.35468 -22.638841,1.57435 -0.916386,0.025 -1.837621,0.046 -2.763456,0.0625 -7.122068,0.12746 -13.90226,-0.0132 -20.344142,-0.38507 -7.759929,-0.44683 -14.54653,-1.18944 -20.789215,-2.28507 -6.62257,-1.1535 -11.446452,-2.45156 -15.675782,-4.30692 -2.16027,-0.94262 -3.75467,-1.89945 -5.01366,-2.95502 -2.28452,-1.87639 -2.41377,-3.5054 -2.22571,-3.58678 z"
         style="fill:#000000;stroke:none;stroke-width:0.26458332px;stroke-linecap:butt;stroke-linejoin:miter;stroke-opacity:1" />
      <path
         sodipodi:nodetypes="cc"
         inkscape:original-d="M -111.125,104.91249 C -99.306236,82.051677 19.133004,86.529754 14.967092,101.4923"
         inkscape:path-effect="#path-effect848"
         inkscape:connector-curvature="0"
         id="path846"
         d="m -111.125,104.91249 c -0.0915,-0.0473 0.39992,-1.97939 3.10958,-4.34297 1.41306,-1.236648 3.19709,-2.427058 5.578,-3.612244 4.430584,-2.207954 9.542947,-3.854223 16.386431,-5.318241 6.360844,-1.36579 13.22764,-2.330227 21.020474,-2.985257 5.440767,-0.457912 11.101207,-0.739511 17.000844,-0.831097 2.005364,-0.03113 3.989812,-0.03956 5.950265,-0.02788 7.928181,0.04687 15.303088,0.419955 22.191797,1.064979 7.187747,0.67207 13.221918,1.560098 18.7461533,2.781152 2.7084241,0.598433 5.0658949,1.233114 7.2437493,1.966712 2.1385704,0.718443 3.8580186,1.446155 5.3801254,2.319227 1.487447,0.839847 2.496587,1.681346 3.168818,2.672485 0,0 10e-7,1e-6 10e-7,1e-6 0.350734,0.517874 0.531925,1.023569 0.597754,1.465656 0.148353,1.03296 -0.275298,1.42914 -0.281902,1.4273 -0.08247,-0.023 0.05854,-0.53331 -0.205189,-1.31574 -0.117848,-0.358184 -0.328464,-0.739154 -0.678367,-1.148317 0,0 -1e-6,-1e-6 -1e-6,-1e-6 C 13.387035,98.210007 12.460558,97.610813 10.977379,96.884579 9.4659731,96.158466 7.8099349,95.579714 5.6785345,94.977864 3.5163503,94.369452 1.204502,93.853314 -1.4891233,93.358228 -7.0015757,92.345478 -12.907069,91.632863 -20.076862,91.082979 c -6.846055,-0.524085 -14.137579,-0.81902 -22.013133,-0.840507 -1.944983,-0.0052 -3.913116,0.0064 -5.901539,0.03723 -5.852809,0.09083 -11.455278,0.342024 -16.850846,0.744246 -7.745454,0.578256 -14.494122,1.405992 -20.809107,2.596162 -6.82786,1.292475 -11.753159,2.66548 -16.196763,4.599169 -2.37191,1.033331 -4.11494,2.028182 -5.5673,3.095902 -2.66407,1.96522 -3.5587,3.67525 -3.70945,3.59731 z"
         style="fill:#000000;stroke:none;stroke-width:0.26458332px;stroke-linecap:butt;stroke-linejoin:miter;stroke-opacity:1" />
      <path
         sodipodi:nodetypes="cc"
         inkscape:original-d="m -81.227082,99.620833 c -9.972037,-7.630616 12.910485,-21.284766 -1.322917,-41.539582"
         inkscape:path-effect="#path-effect852"
         inkscape:connector-curvature="0"
         id="path850"
         d="m -81.227082,99.620833 c 0.03671,-0.04797 -1.893946,-0.06039 -3.057635,-2.919983 -0.450446,-1.171655 -0.583961,-2.577318 -0.339233,-4.133422 0.503057,-3.348461 1.701235,-5.68562 3.128752,-9.452875 0.514029,-1.382923 1.017952,-2.846444 1.433853,-4.335847 0.661562,-2.369155 1.038208,-4.581962 1.068726,-6.73137 0,-10e-7 0,-10e-7 0,-2e-6 0.09551,-4.047896 -1.120473,-7.633273 -2.06962,-9.983362 -0.97806,-2.421678 -1.754205,-3.795497 -1.487766,-3.982729 -0.145302,0.102107 5.800153,3.993631 6.060835,13.958931 -10e-7,0 0,2e-6 0,2e-6 0.04354,2.420146 -0.315293,4.897661 -1.018191,7.447034 -0.443542,1.608705 -0.995459,3.142986 -1.578498,4.568471 -1.673706,4.166343 -2.782662,5.705347 -3.568529,8.895772 -0.314883,1.311531 -0.393362,2.361568 -0.187294,3.29944 0.401641,2.107299 1.785317,3.146839 1.6146,3.36994 z"
         style="fill:#000000;stroke:none;stroke-width:0.26458332px;stroke-linecap:butt;stroke-linejoin:miter;stroke-opacity:1" />
      <path
         sodipodi:nodetypes="cc"
         inkscape:original-d="M -59.349334,92.609374 C -69.32137,84.978759 -46.438849,71.324609 -60.672251,51.069793"
         inkscape:path-effect="#path-effect852-3"
         inkscape:connector-curvature="0"
         id="path850-6"
         d="m -59.349334,92.609374 c 0.03671,-0.04797 -1.893946,-0.06039 -3.057635,-2.919983 -0.450446,-1.171655 -0.583961,-2.577317 -0.339232,-4.133422 0.503056,-3.34846 1.701234,-5.685619 3.128751,-9.452874 0.514029,-1.382922 1.017952,-2.846442 1.433852,-4.335843 0.661563,-2.369156 1.03821,-4.581964 1.068728,-6.731374 -10e-7,-10e-7 -10e-7,-10e-7 -10e-7,-2e-6 0.09551,-4.047894 -1.120472,-7.633269 -2.069617,-9.983356 -0.978058,-2.421677 -1.754203,-3.795496 -1.487763,-3.982728 -0.145302,0.102107 5.800147,3.993631 6.060829,13.958924 -1e-6,10e-7 0,10e-7 0,2e-6 0.04354,2.420147 -0.315293,4.897664 -1.018192,7.447038 -0.443542,1.608704 -0.995458,3.142983 -1.578497,4.568467 -1.673706,4.166343 -2.782661,5.705347 -3.568529,8.895772 -0.314882,1.311531 -0.393361,2.361567 -0.187293,3.29944 0.40164,2.107298 1.785316,3.146838 1.614599,3.369939 z"
         style="fill:#000000;stroke:none;stroke-width:0.26458332px;stroke-linecap:butt;stroke-linejoin:miter;stroke-opacity:1" />
      <path
         sodipodi:nodetypes="cc"
         inkscape:original-d="m -40.299334,100.01771 c -9.972037,-7.630617 12.910485,-21.284767 -1.322917,-41.539583"
         inkscape:path-effect="#path-effect852-7"
         inkscape:connector-curvature="0"
         id="path850-5"
         d="m -40.299334,100.01771 c 0.03671,-0.04797 -1.893946,-0.06039 -3.057635,-2.919984 -0.450446,-1.171655 -0.583961,-2.577317 -0.339232,-4.133422 0.503056,-3.34846 1.701234,-5.68562 3.128751,-9.452875 0.514029,-1.382923 1.017952,-2.846444 1.433853,-4.335846 0.661562,-2.369155 1.038209,-4.581962 1.068726,-6.731371 0,0 0,-2e-6 0,-2e-6 0.09551,-4.047896 -1.120473,-7.633272 -2.06962,-9.983361 -0.978059,-2.421678 -1.754204,-3.795498 -1.487765,-3.982729 -0.145303,0.102107 5.800152,3.993631 6.060834,13.95893 -10e-7,0 0,2e-6 0,2e-6 0.04354,2.420146 -0.315293,4.897662 -1.018191,7.447035 -0.443543,1.608705 -0.995459,3.142986 -1.578498,4.56847 -1.673706,4.166343 -2.782662,5.705348 -3.568529,8.895773 -0.314883,1.311531 -0.393362,2.361568 -0.187294,3.29944 0.401641,2.107299 1.785317,3.146839 1.6146,3.36994 z"
         style="fill:#000000;stroke:none;stroke-width:0.26458332px;stroke-linecap:butt;stroke-linejoin:miter;stroke-opacity:1" />
      <path
         sodipodi:nodetypes="cc"
         inkscape:original-d="M -19.926417,96.578125 C -29.898453,88.94751 -7.0159325,75.29336 -21.249334,55.038544"
         inkscape:path-effect="#path-effect852-35"
         inkscape:connector-curvature="0"
         id="path850-62"
         d="m -19.926417,96.578125 c 0.03671,-0.04797 -1.893946,-0.06039 -3.057635,-2.919983 -0.450446,-1.171655 -0.583961,-2.577317 -0.339232,-4.133422 0.503056,-3.34846 1.701234,-5.685619 3.128751,-9.452874 0.514029,-1.382922 1.017952,-2.846442 1.433852,-4.335843 0.661563,-2.369156 1.03821,-4.581965 1.068727,-6.731374 0,-10e-7 0,-10e-7 0,-2e-6 0.09551,-4.047894 -1.120472,-7.633269 -2.069617,-9.983356 -0.978058,-2.421677 -1.754203,-3.795496 -1.487763,-3.982728 -0.145302,0.102106 5.800147,3.993631 6.060829,13.958924 -1e-6,0 0,2e-6 0,2e-6 0.04354,2.420147 -0.315293,4.897664 -1.018192,7.447038 -0.443542,1.608704 -0.995458,3.142983 -1.578497,4.568467 -1.673706,4.166343 -2.782661,5.705347 -3.568529,8.895772 -0.314882,1.311531 -0.393361,2.361567 -0.187294,3.29944 0.401641,2.107298 1.785317,3.146838 1.6146,3.369939 z"
         style="fill:#000000;stroke:none;stroke-width:0.26458332px;stroke-linecap:butt;stroke-linejoin:miter;stroke-opacity:1" />
      <path
         sodipodi:nodetypes="cc"
         inkscape:original-d="m -83.608331,169.73541 c -22.979759,23.91232 93.5075303,27.20147 74.6124984,-2.38125"
         inkscape:path-effect="#path-effect898"
         inkscape:connector-curvature="0"
         id="path896"
         d="m -83.608331,169.73541 c 0.0031,0.003 -2.279527,0.35713 -3.785672,3.91414 -0.494221,1.20807 -0.726486,2.85449 -0.142691,4.59877 0.545528,1.51127 1.542253,2.87392 2.850398,3.992 1.421992,1.24695 3.074954,2.26493 4.928683,3.14541 4.177,1.99776 8.837556,3.28799 14.277039,4.22925 5.493159,0.96397 11.365339,1.47949 17.634718,1.51671 0.542125,0.004 1.086554,0.003 1.633108,-3.5e-4 5.701702,-0.04 11.10175,-0.48796 16.213051,-1.33994 5.620528,-0.92357 10.517285,-2.26617 14.902149,-4.36626 0,0 3e-6,-1e-5 3e-6,-1e-5 2.019547,-0.96351 3.819445,-2.08332 5.3707153,-3.42622 1.4989161,-1.28187 2.6438099,-2.78066 3.3531757,-4.40291 0.8031722,-1.89236 0.8352765,-3.75136 0.5361577,-5.21275 -0.8725886,-4.06641 -3.1223042,-5.05211 -3.1583403,-5.0291 -0.3465911,0.22138 0.8913624,2.16072 0.8884853,5.29999 0.00839,1.11466 -0.2445175,2.43647 -0.9578482,3.61133 -0.622217,1.07016 -1.5965625,2.02157 -2.8764315,2.95208 -1.353092,0.9694 -2.930573,1.75276 -4.789263,2.49553 0,0 -3e-6,0 -3e-6,0 -4.083077,1.6248 -8.559086,2.57442 -13.988063,3.32118 -4.891806,0.66033 -10.035726,1.00108 -15.530096,1.04147 -0.525999,0.004 -1.050326,0.005 -1.572796,0.003 -6.052691,-0.0213 -11.651373,-0.392 -16.931391,-1.11326 -5.288787,-0.73663 -9.544213,-1.61416 -13.464345,-3.12879 -1.718814,-0.66968 -3.149432,-1.34778 -4.369679,-2.21693 -1.083205,-0.79723 -1.89036,-1.55857 -2.326115,-2.4447 -0.498074,-0.90057 -0.547052,-1.99868 -0.392131,-2.87642 0.465691,-2.75487 1.979573,-4.29227 1.697182,-4.56365 z"
         style="fill:#000000;stroke:none;stroke-width:0.26458332px;stroke-linecap:butt;stroke-linejoin:miter;stroke-opacity:1" />
    </g>
  </g>
</svg>
