<?xml version="1.0" encoding="UTF-8" standalone="no"?>
<!-- Created with Inkscape (http://www.inkscape.org/) -->

<svg
   xmlns:dc="http://purl.org/dc/elements/1.1/"
   xmlns:cc="http://creativecommons.org/ns#"
   xmlns:rdf="http://www.w3.org/1999/02/22-rdf-syntax-ns#"
   xmlns:svg="http://www.w3.org/2000/svg"
   xmlns="http://www.w3.org/2000/svg"
   xmlns:sodipodi="http://sodipodi.sourceforge.net/DTD/sodipodi-0.dtd"
   xmlns:inkscape="http://www.inkscape.org/namespaces/inkscape"
   width="210mm"
   height="297mm"
   viewBox="0 0 210 297"
   version="1.1"
   id="svg8"
   inkscape:version="0.92.5 (2060ec1f9f, 2020-04-08)"
   sodipodi:docname="Shane_Anthony_Development.svg">
  <defs
     id="defs2" />
  <sodipodi:namedview
     id="base"
     pagecolor="#ffffff"
     bordercolor="#666666"
     borderopacity="1.0"
     inkscape:pageopacity="0.0"
     inkscape:pageshadow="2"
     inkscape:zoom="0.7"
     inkscape:cx="352.68455"
     inkscape:cy="630.48181"
     inkscape:document-units="mm"
     inkscape:current-layer="layer1"
     showgrid="false"
     inkscape:pagecheckerboard="true"
     inkscape:window-width="1366"
     inkscape:window-height="715"
     inkscape:window-x="0"
     inkscape:window-y="21"
     inkscape:window-maximized="1" />
  <metadata
     id="metadata5">
    <rdf:RDF>
      <cc:Work
         rdf:about="">
        <dc:format>image/svg+xml</dc:format>
        <dc:type
           rdf:resource="http://purl.org/dc/dcmitype/StillImage" />
        <dc:title></dc:title>
      </cc:Work>
    </rdf:RDF>
  </metadata>
  <g
     inkscape:label="Layer 1"
     inkscape:groupmode="layer"
     id="layer1">
    <g
       id="g132"
       transform="matrix(2.7355255,0,0,2.7355255,-145.62256,-171.49738)">
      <g
         transform="translate(5.3453906,8.4189901)"
         id="g111">
        <path
           style="fill:#000000;stroke:#000000;stroke-width:0.50577772px;stroke-linecap:butt;stroke-linejoin:miter;stroke-opacity:1"
           d="m 60.722834,109.47462 27.680631,-2.18777 v 4.02637 z"
           id="path35"
           inkscape:connector-curvature="0" />
        <path
           style="fill:#000000;stroke:#000000;stroke-width:0.49707898px;stroke-linecap:butt;stroke-linejoin:miter;stroke-opacity:1"
           d="m 115.56508,109.45813 -26.68825,-2.19175 v 4.03368 z"
           id="path35-7"
           inkscape:connector-curvature="0" />
      </g>
      <path
         inkscape:connector-curvature="0"
         id="path18"
         d="m 93.501819,86.003919 a 16.81994,16.81994 0 0 0 -16.82016,16.820161 16.81994,16.81994 0 0 0 16.82016,16.81964 16.81994,16.81994 0 0 0 16.819651,-16.81964 16.81994,16.81994 0 0 0 -16.819651,-16.820161 z m -5.15e-4,1.133779 A 15.686011,15.686011 0 0 1 109.18768,102.82356 15.686011,15.686011 0 0 1 93.501304,118.50994 15.686011,15.686011 0 0 1 77.815438,102.82356 15.686011,15.686011 0 0 1 93.501304,87.137698 Z m 0,1.322917 a 14.363094,14.363094 0 0 0 -14.362949,14.362945 14.363094,14.363094 0 0 0 14.362949,14.36347 14.363094,14.363094 0 0 0 9.869166,-3.93878 h -2.72283 l -0.62632,-2.10478 h -4.488099 l -0.617534,2.10478 h -4.027144 l 4.792472,-12.75064 h 4.296897 l 4.397148,11.69902 a 14.363094,14.363094 0 0 0 3.48971,-9.37307 14.363094,14.363094 0 0 0 -14.363466,-14.362945 z m -5.18418,5.293733 c 1.629402,0 2.870377,0.304273 3.722769,0.913124 0.858187,0.603052 1.368298,1.565603 1.530657,2.887679 l -3.713985,0.217556 c -0.09858,-0.574061 -0.307396,-0.991698 -0.626319,-1.252635 -0.313121,-0.260933 -0.748165,-0.391192 -1.30483,-0.391192 -0.458086,0 -0.803132,0.09844 -1.035079,0.29559 -0.231939,0.191352 -0.347781,0.426534 -0.347781,0.704866 0,0.202951 0.09597,0.385413 0.287321,0.547772 0.185555,0.168158 0.626052,0.324773 1.321882,0.469738 1.722181,0.37111 2.954195,0.747972 3.696415,1.130679 0.748016,0.376907 1.290457,0.846755 1.626774,1.409215 0.342117,0.56247 0.513147,1.1914 0.513147,1.88723 0,0.8176 -0.226222,1.57133 -0.678511,2.26136 -0.45229,0.69003 -1.084207,1.21506 -1.896007,1.57458 -0.811803,0.35371 -1.835515,0.5302 -3.070614,0.5302 -2.16867,0 -3.67016,-0.41713 -4.505153,-1.25212 -0.834996,-0.835 -1.307827,-1.8965 -1.418,-3.18379 l 3.748609,-0.23461 c 0.08118,0.60885 0.246753,1.07272 0.496094,1.39165 0.4059,0.51607 0.985612,0.77411 1.739429,0.77411 0.562461,0 0.994521,-0.13025 1.296043,-0.39119 0.307326,-0.26673 0.460954,-0.57451 0.460954,-0.92242 0,-0.33052 -0.145185,-0.62583 -0.435115,-0.88677 -0.289928,-0.26094 -0.962105,-0.50755 -2.017448,-0.73949 -1.727978,-0.38851 -2.96051,-0.90458 -3.696933,-1.548229 -0.742215,-0.643641 -1.11311,-1.463992 -1.11311,-2.461347 0,-0.655241 0.188434,-1.272741 0.56534,-1.852599 0.382707,-0.585656 0.953974,-1.044075 1.71359,-1.374595 0.765413,-0.336318 1.811986,-0.504362 3.139861,-0.504362 z m 9.468673,10.048482 -1.400432,4.5837 h 2.809647 z"
         style="fill:#ffffff;stroke-width:0.26458332" />
      <path
         inkscape:connector-curvature="0"
         id="rect28"
         d="m 66.098272,117.72758 v 10.01644 h 54.806468 v -10.01644 z m 16.921448,2.22467 c 0.157721,0.0131 0.210145,0.0328 0.34158,0.11162 0.046,0.12486 0.05891,0.19073 0.05891,0.30902 0,0.36145 -0.183886,0.78847 -0.551905,1.2945 -0.276016,0.36802 -0.801563,0.94632 -1.826763,1.99781 -0.427164,0.45345 -0.473448,0.4933 -0.710033,0.76274 -0.276016,0.0657 -0.302265,0.0721 -0.486275,0.10491 0.105148,-0.52575 0.361399,-2.26091 0.532267,-3.58842 -0.11172,-0.0131 -0.209865,-0.0196 -0.282154,-0.0196 -0.466598,0 -0.802018,0.36162 -0.802018,0.86764 0,0.18401 0.02619,0.30868 0.111622,0.52555 l -0.499194,0.27595 c -0.09201,-0.21029 -0.118341,-0.32847 -0.118341,-0.50591 0,-0.3943 0.210093,-0.7818 0.571543,-1.05781 0.322016,-0.24316 0.643919,-0.34159 1.156517,-0.34159 0.210299,0 0.361887,0.007 0.670761,0.046 -0.09858,0.0789 -0.144954,0.10496 -0.296105,0.17725 l -0.440283,3.01635 c 1.189493,-1.15663 1.446046,-1.42616 1.800923,-1.88619 0.381165,-0.49288 0.597895,-0.97889 0.597895,-1.33377 0,-0.22344 -0.05909,-0.34841 -0.22996,-0.49299 0.151152,-0.13144 0.223571,-0.18417 0.401011,-0.26303 z m 30.46015,0.0527 c 0.0526,0 0.12475,0.006 0.20361,0.0129 l -0.2434,0.44028 c -0.0854,-0.0131 -0.12467,-0.0129 -0.17725,-0.0129 -0.3023,0 -0.45989,0.0988 -0.59789,0.38137 -0.2103,0.43374 -0.3551,0.90651 -0.63769,2.05 -0.17087,0.69004 -0.22314,0.94637 -0.33486,1.51154 0.33516,0.63747 0.71614,0.95963 1.13016,0.95963 0.28916,0 0.47309,-0.17766 0.67024,-0.63769 l 0.15762,0.58498 c -0.29574,0.17087 -0.53197,0.22996 -0.86714,0.22996 -0.77547,0 -1.35405,-0.40053 -1.75493,-1.21543 -0.21029,-0.42059 -0.39424,-0.98574 -0.57826,-1.74149 -0.0723,-0.3023 -0.0724,-0.30931 -0.23667,-1.01906 -0.28259,1.14349 -0.3217,1.28823 -0.42685,1.56424 -0.2103,0.55861 -0.53891,1.0188 -0.86093,1.21595 -0.17087,0.10515 -0.34838,0.14469 -0.63097,0.14469 -0.10515,0 -0.19087,-0.007 -0.36174,-0.0202 l 0.31575,-0.4532 c 0.18401,0.0197 0.2692,0.0263 0.40721,0.0263 0.3483,0 0.49296,-0.0726 0.63097,-0.31574 0.21687,-0.38774 0.47336,-1.21535 0.77566,-2.53628 -0.23001,-0.0131 -0.33542,-0.0134 -0.49971,-0.0134 -0.30887,0 -0.45981,0.0262 -0.61753,0.11163 -0.18401,0.0986 -0.29559,0.2762 -0.29559,0.47335 0,0.17087 0.046,0.30865 0.21032,0.66353 l -0.45372,0.30902 c -0.11829,-0.24316 -0.16433,-0.40739 -0.16433,-0.57826 0,-0.36145 0.28929,-0.83464 0.70332,-1.16323 0.24315,-0.18401 0.47296,-0.25632 0.87385,-0.25632 0.12486,0 0.20401,0.006 0.36173,0.0196 l 0.22324,-0.20361 0.11834,0.42737 c 0.53889,2.03725 0.69668,2.51688 0.97927,3.06234 0.0591,-0.20372 0.0921,-0.34179 0.0987,-0.37465 0.0723,-0.31545 0.14461,-0.6244 0.21032,-0.93328 0.32202,-1.42608 0.44007,-1.75484 0.75551,-2.12287 0.34174,-0.40087 0.63763,-0.59117 0.91364,-0.59117 z m -9.03614,0.046 c 0.0854,0 0.14423,0.006 0.26252,0.0393 l -0.26924,0.36794 c -0.0789,-0.0131 -0.15096,-0.026 -0.17724,-0.0326 -0.0854,-0.0197 -0.17134,-0.0264 -0.23048,-0.0264 -0.11829,0 -0.17067,0.0459 -0.22324,0.2036 -0.17087,0.50603 -0.33505,1.07774 -0.50592,1.78749 -0.34173,1.38665 -0.34158,1.38695 -0.34158,1.57096 0,0.1643 0.11785,0.26252 0.32815,0.26252 0.0526,0 0.15803,-0.006 0.26975,-0.0129 0.0526,-0.007 0.13787,-0.0131 0.2496,-0.0196 l -0.13798,0.16434 c -0.0854,0.0131 -0.1379,0.0198 -0.15761,0.0263 l -0.30903,0.0393 c -0.0986,0.0132 -0.4861,0.0786 -0.61753,0.10491 -0.046,0.007 -0.0922,0.0134 -0.12506,0.0134 -0.0854,0 -0.15761,-0.0725 -0.15761,-0.17105 0,-0.092 0.0327,-0.2297 0.0853,-0.38085 0.0131,-0.0329 0.0922,-0.33543 0.47335,-1.75493 0.0789,-0.28916 0.13118,-0.4864 0.1509,-0.58498 0.0263,-0.0986 0.0459,-0.19029 0.0656,-0.28887 -1.08434,1.5378 -1.53754,2.24102 -1.75441,2.72076 l -0.32195,0.2496 c -0.0131,-0.52574 -0.0196,-0.58488 -0.24959,-2.95073 -0.11172,0.46003 -0.35508,1.34737 -0.42737,1.61024 -0.15772,0.53889 -0.2367,0.70311 -0.446998,0.97255 -0.289158,0.34831 -0.624282,0.4992 -1.13688,0.4992 -0.06572,0 -0.164381,-1.5e-4 -0.282671,-0.007 l 0.302305,-0.4532 c 0.335164,0.0329 0.374555,0.0331 0.486275,0.0331 0.282589,0 0.446826,-0.0986 0.578261,-0.32866 0.11172,-0.2103 0.466868,-1.43951 0.756028,-2.61586 -0.21687,-0.0329 -0.31564,-0.0393 -0.47336,-0.0393 -0.571744,0 -0.893483,0.23636 -0.893483,0.66353 0,0.19715 0.0526,0.36144 0.210323,0.6966 l -0.499711,0.3483 c -0.11172,-0.24973 -0.150894,-0.41404 -0.150894,-0.60462 -3e-6,-0.33516 0.209944,-0.74908 0.564822,-1.11052 0.308874,-0.32202 0.572031,-0.43357 1.012343,-0.43357 0.15772,0 0.28254,0.006 0.53226,0.0393 l 0.20361,-0.16433 c 0.0854,0.46003 0.25615,1.91254 0.34158,2.91145 l 0.16433,-0.23668 c 0.24973,-0.36144 0.49286,-0.72257 0.74259,-1.07745 0.97263,-1.35379 0.97276,-1.35419 1.05162,-1.45934 0.12486,-0.15115 0.34181,-0.30862 0.63097,-0.4532 0.17744,-0.092 0.28278,-0.11834 0.42736,-0.11834 z m 12.44679,0.13797 0.0853,0.0987 c -0.15773,0.64403 -0.20376,0.70951 -0.51264,0.70951 -0.138,0 -0.14457,-5e-5 -0.9989,-0.0723 l -0.51263,2.05723 c -0.11172,0.49946 -0.27584,0.73608 -0.78187,1.16324 0.13801,0.007 0.24974,0.0129 0.30231,0.0129 0.36145,0 0.7688,-0.0262 1.06453,-0.0656 l -0.0129,0.0527 c -0.53232,0.29573 -0.63105,0.30851 -2.21486,0.30851 l 0.22996,-0.25632 c 0.55861,-0.0263 0.68378,-0.19046 0.92036,-1.15651 l 0.53227,-2.14251 c -0.42059,-0.0329 -0.44712,-0.0326 -0.5917,-0.0326 -0.36802,0 -0.59136,0.0328 -0.76222,0.11163 -0.32202,0.15115 -0.493,0.42742 -0.493,0.80201 0,0.18401 0.0266,0.28917 0.15141,0.60462 l -0.49299,0.32194 c -0.11829,-0.23001 -0.16433,-0.40738 -0.16433,-0.62425 0,-0.84119 0.85447,-1.46554 2.00453,-1.46554 0.23001,0 0.33501,0.006 1.2945,0.0522 0.20372,0.007 0.34821,0.0134 0.41392,0.0134 0.23659,0 0.26954,-0.033 0.53899,-0.493 z m -44.333211,0.22996 -0.04599,0.18397 c 0.637463,0.0394 0.972632,0.0922 1.25522,0.21704 0.446881,0.19716 0.683678,0.53874 0.683678,0.99219 0,0.5586 -0.236895,1.24892 -0.572058,1.66295 -0.2563,0.31544 -0.795105,0.65714 -1.320848,0.83457 -0.348305,0.12487 -0.617731,0.14418 -1.695505,0.14418 h -0.834575 l 0.315225,-0.30231 c 0.709755,-0.0526 0.880583,-0.25591 1.136882,-1.3534 l 0.492993,-1.95854 c -0.920051,0.092 -1.406115,0.55224 -1.406115,1.33428 0,0.12487 0.0066,0.19707 0.04599,0.36794 l -0.538985,0.24288 c -0.03943,-0.16429 -0.04599,-0.24307 -0.04599,-0.36794 0,-0.56517 0.269253,-1.00539 0.827855,-1.36684 0.348305,-0.22344 0.68998,-0.34156 1.228865,-0.43356 z m 24.729755,0.0853 -0.03979,0.16433 c 0.138009,-0.007 0.203663,-0.006 0.275952,-0.006 0.775473,0 1.137399,0.21007 1.137399,0.66353 0,0.48631 -0.295775,0.9462 -0.768945,1.20251 -0.400878,0.21687 -0.762572,0.32201 -1.196308,0.34829 -0.07229,0.26945 -0.0789,0.30917 -0.164333,0.66405 -0.03286,0.16429 -0.05898,0.27585 -0.08527,0.38757 -0.01972,0.0789 -0.03971,0.16416 -0.05943,0.2496 0.578316,-0.007 0.736304,-0.0128 1.104323,-0.0522 l -0.01343,0.0589 c -0.545457,0.25631 -0.604213,0.26304 -2.35231,0.26304 h -0.45992 l 0.269235,-0.26975 h 0.939477 c 0.243155,-0.84119 0.591495,-2.24061 0.814938,-3.25924 -0.433739,0.046 -0.663329,0.12473 -0.88677,0.29559 -0.236585,0.19059 -0.388088,0.52555 -0.388088,0.87385 0,0.15772 0.01984,0.26298 0.0987,0.493 l -0.492993,0.29558 c -0.08543,-0.21029 -0.111619,-0.34168 -0.111619,-0.53226 0,-0.51917 0.282845,-0.96613 0.802018,-1.28158 0.322016,-0.19715 0.617709,-0.28229 1.13688,-0.33486 z m -3.693314,0.0662 c 0.703181,0 1.084173,0.44681 1.084173,1.27485 0,0.80176 -0.256133,1.47836 -0.735873,1.93839 -0.499456,0.47316 -1.143611,0.75602 -1.748215,0.75602 -0.729467,0 -1.117243,-0.4471 -1.117243,-1.28829 0,-0.82805 0.29591,-1.55085 0.821655,-2.01745 0.453454,-0.38773 1.150044,-0.66352 1.695503,-0.66352 z m -16.587102,0.0325 -0.03979,0.13798 1.406633,-0.0264 c 0.11172,0.046 0.157681,0.11174 0.183967,0.25632 l -0.43408,0.42736 c -0.184013,-0.42717 -0.216834,-0.46664 -0.486275,-0.46664 -0.03943,0 -0.249759,0.006 -0.512631,0.0129 h -0.203607 l -0.374653,1.4919 h 1.176671 c -0.11829,0.092 -0.138393,0.10526 -0.250113,0.19069 -0.07886,0.007 -0.150963,0.007 -0.17725,0.0134 -0.03943,0 -0.138091,0.006 -0.28267,0.0129 -0.157723,0.0131 -0.197107,0.0134 -0.532268,0.0331 -0.236585,0.90034 -0.243101,0.91322 -0.880565,1.4981 h 1.708939 c 0.630894,0 0.716235,-0.0329 0.716235,-0.28267 0,-0.0657 -0.0066,-0.11158 -0.02635,-0.24959 l 0.499194,-0.18397 c 0.01315,0.0657 0.02636,0.11804 0.02636,0.15089 0,0.15116 -0.111626,0.30897 -0.413928,0.58498 -0.29573,0.26287 -0.387937,0.30231 -0.72967,0.30231 -0.302303,0 -0.302131,-7e-5 -1.084173,-0.0264 -0.24973,-0.0131 -0.302249,-0.0131 -0.880568,-0.0196 h -0.387572 l -0.21704,-0.007 0.249597,-0.21652 c 0.578318,-0.15116 0.591542,-0.18418 0.933275,-1.51826 h -0.183967 c 0.11172,-0.13144 0.144595,-0.17095 0.256315,-0.28267 l 0.367935,-1.47846 c -0.900335,0.0263 -1.261938,0.23671 -1.261938,0.74931 0,0.17086 0.02664,0.32832 0.08578,0.54518 l -0.473355,0.31575 c -0.09201,-0.23002 -0.118341,-0.3614 -0.118341,-0.53227 0,-0.34173 0.144767,-0.61135 0.473358,-0.86765 0.374592,-0.29573 0.775222,-0.42079 1.406115,-0.42736 z m 8.345744,0 -0.03927,0.13798 1.406117,-0.0264 c 0.11172,0.046 0.158197,0.11174 0.184483,0.25632 l -0.43408,0.42736 c -0.18401,-0.42717 -0.216832,-0.46664 -0.486275,-0.46664 -0.03943,0 -0.249759,0.006 -0.512631,0.0129 h -0.203604 l -0.374656,1.4919 h 1.176155 c -0.118292,0.092 -0.137877,0.10526 -0.249597,0.19069 -0.07886,0.007 -0.150963,0.007 -0.17725,0.0134 -0.03943,0 -0.138091,0.006 -0.28267,0.0129 -0.157723,0.0131 -0.197104,0.0134 -0.532268,0.0331 -0.236582,0.90034 -0.243101,0.91322 -0.880565,1.4981 h 1.708423 c 0.630891,0 0.716235,-0.0329 0.716235,-0.28267 0,-0.0657 -0.0061,-0.11158 -0.02584,-0.24959 l 0.499194,-0.18397 c 0.01315,0.0657 0.02636,0.11804 0.02636,0.15089 0,0.15116 -0.111625,0.30897 -0.413927,0.58498 -0.29573,0.26287 -0.387937,0.30231 -0.72967,0.30231 -0.302303,0 -0.302128,-7e-5 -1.084173,-0.0264 -0.249727,-0.0131 -0.302249,-0.0131 -0.880565,-0.0196 h -0.388091 l -0.216524,-0.007 0.249597,-0.21652 c 0.578318,-0.15116 0.591542,-0.18418 0.933275,-1.51826 h -0.183967 c 0.11172,-0.13144 0.144595,-0.17095 0.256315,-0.28267 l 0.367938,-1.47846 c -0.900338,0.0263 -1.261941,0.23671 -1.261941,0.74931 0,0.17086 0.02664,0.32832 0.08578,0.54518 l -0.473355,0.31575 c -0.09201,-0.23002 -0.118338,-0.3614 -0.118338,-0.53227 0,-0.34173 0.144764,-0.61135 0.473355,-0.86765 0.374592,-0.29573 0.775224,-0.42079 1.406115,-0.42736 z m 21.082428,0 -0.0393,0.13798 1.40612,-0.0264 c 0.11172,0.046 0.15768,0.11174 0.18397,0.25632 l -0.43357,0.42736 c -0.18401,-0.42717 -0.21683,-0.46664 -0.48627,-0.46664 -0.0394,0 -0.24976,0.006 -0.51263,0.0129 h -0.20361 l -0.37465,1.4919 h 1.17615 c -0.11829,0.092 -0.13787,0.10526 -0.2496,0.19069 -0.0789,0.007 -0.15096,0.007 -0.17725,0.0134 -0.0394,0 -0.13809,0.006 -0.28267,0.0129 -0.15772,0.0131 -0.1971,0.0134 -0.53226,0.0331 -0.23659,0.90034 -0.24362,0.91322 -0.88109,1.4981 h 1.70894 c 0.63089,0 0.71624,-0.0329 0.71624,-0.28267 0,-0.0657 -0.007,-0.11158 -0.0264,-0.24959 l 0.49971,-0.18397 c 0.0132,0.0657 0.0264,0.11804 0.0264,0.15089 0,0.15116 -0.11214,0.30897 -0.41445,0.58498 -0.29573,0.26287 -0.38742,0.30231 -0.72915,0.30231 -0.3023,0 -0.30265,-7e-5 -1.08469,-0.0264 -0.24973,-0.0131 -0.30225,-0.0131 -0.88057,-0.0196 h -0.38757 l -0.21704,-0.007 0.25012,-0.21652 c 0.57831,-0.15116 0.59154,-0.18418 0.93327,-1.51826 h -0.18448 c 0.11172,-0.13144 0.14459,-0.17095 0.25631,-0.28267 l 0.36846,-1.47846 c -0.90034,0.0263 -1.26195,0.23671 -1.26195,0.74931 1e-5,0.17086 0.0261,0.32832 0.0853,0.54518 l -0.47284,0.31575 c -0.092,-0.23002 -0.11833,-0.3614 -0.11833,-0.53227 0,-0.34173 0.14425,-0.61135 0.47283,-0.86765 0.3746,-0.29573 0.77575,-0.42079 1.40664,-0.42736 z m -16.639804,0.0594 c 0.09858,0 0.157951,0.006 0.289388,0.0196 l -0.256315,0.36793 c -0.236585,-0.0131 -0.296084,-0.0129 -0.388091,-0.0129 -0.243157,0 -0.380756,0.0786 -0.492477,0.28888 -0.05915,0.10514 -0.05945,0.11158 -0.26975,0.9002 -0.230013,0.98577 -0.236286,1.01236 -0.334862,1.26866 -0.08543,0.19058 -0.112112,0.22314 -0.552421,0.63716 h 1.242301 c 1.130347,0.007 1.202708,-0.0329 1.629873,-0.93327 l 0.07235,0.12506 c -0.09857,0.24972 -0.302511,0.70306 -0.38137,0.85421 -0.118293,0.24315 -0.262882,0.31574 -0.604615,0.31574 -0.190582,0 -0.229865,-1.3e-4 -1.294495,-0.0527 -0.486312,-0.0197 -0.828186,-0.0331 -1.005623,-0.0331 -0.18401,0 -0.341585,0.007 -0.643888,0.0202 0.09858,-0.12486 0.137954,-0.17103 0.22996,-0.26303 0.07229,0.007 0.157602,0.007 0.203605,0.007 0.414023,0 0.584787,-0.2435 0.762228,-1.08469 0.256299,-1.21578 0.368379,-1.52453 0.690395,-1.85312 0.262872,-0.26287 0.578073,-0.48626 0.75551,-0.53227 0.105148,-0.0263 0.223435,-0.0393 0.3483,-0.0393 z m -17.33641,0.14418 -0.361217,1.42627 c -0.295733,1.18949 -0.296005,1.18935 -1.058333,1.8991 l 0.84129,0.0264 h 0.0987 c 0.676894,0 1.064461,-0.15752 1.386478,-0.57154 0.295732,-0.37459 0.51263,-1.07157 0.51263,-1.64331 0,-0.44031 -0.190611,-0.80169 -0.51263,-0.97255 -0.203724,-0.10515 -0.420609,-0.14462 -0.906921,-0.16433 z m 20.760489,0.0202 c -0.906907,0 -1.603518,0.94599 -1.603518,2.16834 0,0.80834 0.35451,1.28158 0.959115,1.28158 0.486312,0 0.933357,-0.28913 1.215945,-0.78858 0.216869,-0.38117 0.3483,-0.93316 0.3483,-1.43919 0,-0.7689 -0.341524,-1.22215 -0.919842,-1.22215 z m 4.232301,0.0258 c -0.05257,0 -0.157739,0.007 -0.256315,0.0134 l -0.434083,1.75442 c 0.105148,0.0197 0.151098,0.0263 0.22996,0.0263 0.630894,0 1.097608,-0.51261 1.097608,-1.20922 0,-0.38117 -0.223147,-0.58498 -0.63717,-0.58498 z"
         style="fill:#ffffff;stroke-width:0.31623757" />
    </g>
  </g>
</svg>
